<?xml version="1.0" encoding="UTF-8"?>
<!-- Generator: Adobe Illustrator 16.0.0, SVG Export Plug-In . SVG Version: 6.00 Build 0)  -->
<!DOCTYPE svg PUBLIC "-//W3C//DTD SVG 1.1//EN" "http://www.w3.org/Graphics/SVG/1.1/DTD/svg11.dtd">
<svg version="1.1" id="Logo" xmlns="http://www.w3.org/2000/svg" xmlns:xlink="http://www.w3.org/1999/xlink" x="0px" y="0px" width="1024px" height="600px" viewBox="0 0 1024 600" enable-background="new 0 0 1024 768" xml:space="preserve">
<title>ING_Primary_Logo_Payoff_ES_RGB</title>
<path fill="#FFFFFF" d="M929.205,388.484c4.781-0.134,9.433-1.582,13.447-4.184h8.118c15.819,0.642,31.153-5.545,42.096-16.989  c16.345-15.628,25.858-41.487,25.858-66.309c-0.171-30.436-12.418-59.559-34.049-80.973c-9.441-9.548-19.814-14.091-28.004-23.498  c-4.049-3.935-7.399-8.53-9.907-13.59c-2.696-3.057-5.934-5.591-9.549-7.475l-5.436-0.715c-0.68-1.252-2.683-1.252-4.078-1.252  c-10.729-1.824-20.816,4.006-31.402,6.044v1.359c6.796,2.039,8.047,10.229,11.802,14.306l3.256,4.65  c4.404,4.958,10.045,8.661,16.345,10.73c8.87,1.358,16.345-2.719,25.036-0.68c30.722,14.986,52.502,50.071,52.502,85.049  c0,50.071-28.611,69.743-46.494,69.743c-3.892-0.226-7.629-1.607-10.729-3.971c2.409-8.914,3.506-18.13,3.255-27.36  c0-28.933-11.41-60.229-27.074-76.179c-7.475-7.511-15.558-13.626-23.928-13.626c-4.076,0-8.189,0-10.729,3.576  c-3.366,2.85-5.14,7.158-4.756,11.552c-6.271,4.061-13.597,6.187-21.065,6.116c-9.295-0.221-18.242-3.572-25.394-9.513v-10.479  l-1.288-5.438c-0.68-4.435-0.68-9.871-4.077-13.983l-2.039-5.436c-3.361-8.155-2.038-11.553-8.153-23.499  c-1.359-6.08-7.476-9.512-11.553-13.59c-2.039-1.359-3.863-7.475-3.863-7.475c-4.041-9.263-6.76-19.385-15.594-24.821l-2.073,1.359  l-4.757-3.398c-1.871-2.091-4.662-3.11-7.439-2.717l-4.364-3.398c-4.023-0.694-8.136-0.694-12.159,0l-4.721,1.359  c-2.755,0.68-6.151,2.719-7.511,2.719c-4.669-2.577-9.715-4.399-14.95-5.401l-4.722,1.359c-3.672,0.087-7.233,1.27-10.229,3.398  c0,0-6.795,2.038-7.438,2.038c-1.871,1.049-3.502,2.473-4.794,4.186c-4.666,3.408-8.213,8.125-10.192,13.555l-2.719,5.436v9.907  c-2.716,2.137-4.825,4.949-6.115,8.154c-3.205,11.847-4.591,24.111-4.112,36.374c-0.316,1.88-1.612,3.448-3.398,4.113v10.515  c0.612,2.93,1.065,5.891,1.359,8.87c0,2.717,0.68,5.436,0.68,8.19c-0.093,0.957,0.147,1.917,0.68,2.717  c0-1.358,0.68,6.116,0.68,6.795c2.761,13.492,6.871,26.673,12.267,39.342c-5.472,8.762-11.589,25.787-15.665,42.095  c-3.392-2.919-7.805-4.374-12.268-4.041c-4.286,0.41-8.192,2.636-10.729,6.116c-3.942-2.051-8.733-1.513-12.125,1.359  c-5.65,4.864-5.65,7.546-5.65,11.516c-2.646,2.567-4.162,6.079-4.221,9.765c-0.357,5.517,1.086,11.002,4.113,15.628H929.205z"/>
<path fill="#000068" d="M569.726,324.572v48.284c-27.145,13.626-52.646,20.422-78.182,20.422  c-70.779,0-113.304-41.489-113.304-94.207c0-56.83,48.677-103.719,110.585-103.719c13.26-0.04,26.43,2.175,38.95,6.546  c8.69,2.717,14.055,5.829,19.491,5.829c4.793,0,6.116-7.939,6.795-12.59h6.761l6.294,65.451h-8.189  c-2.745-11.807-8.873-22.558-17.633-30.937c-13.381-13.166-31.558-20.297-50.321-19.742c-42.525,0-67.347,33.691-67.347,84.406  c0,50.071,30.293,83.977,70.744,83.977c12.558-0.183,24.91-3.215,36.123-8.87v-49.499c0-15.952-2.539-22.104-25.572-22.104v-7.618  h85.443v7.475C569.047,297.676,569.726,304.507,569.726,324.572z M334.391,244.816v144.919h-11.194L178.24,240.202  c0.565,3.835,0.793,7.712,0.679,11.587v91.202c0,27.861,0,38.053,25.501,38.053v7.475h-67.955v-7.475  c25.788,0,25.788-12.231,25.788-38.053V238.986c0-15.45,0-32.403-27.147-32.403v-7.152h64.163l119.207,122.389  c-0.613-3.361-0.841-6.781-0.68-10.194v-66.809c0-26.86,0.68-38.377-25.036-38.377v-7.153h67.954v7.153  C335.75,206.582,334.391,217.42,334.391,244.816z M5.03,388.484v-7.475c16.344,0,27.932-1.358,27.932-25.035V231.69  c0-24.5-8.87-25.036-27.932-25.036V199.5h95.851v7.154c-19.636,0-27.791,0.608-27.791,25.036v124.284  c0,23.677,10.229,25.035,27.791,25.035v7.475H5.03z"/>
<path fill="#FF6200" d="M757.601,388.484c-2.562-5.557-3.949-11.585-4.076-17.703c-0.332-3.928,0.371-7.873,2.039-11.445  l-7.475,1.431c-2.039,2.54-2.719,3.935-2.719,5.258l3.576-1.323c0.68,0,1.359,1.323,2.039,2.681  c-0.68,3.398-4.757,3.398-6.116,4.758c-2.039,6.795,4.077,10.729,4.757,16.31L757.601,388.484z M1018.689,301.11  c-0.176-30.437-12.421-59.558-34.05-80.973c-9.44-9.548-19.813-14.091-28.003-23.497c-4.062-3.934-7.424-8.529-9.942-13.591  c-2.7-3.055-5.937-5.589-9.55-7.475l2.074,6.116h-0.68c-3.519-0.334-6.846-1.76-9.514-4.077l2.683-2.719  c-0.68-1.251-2.683-1.251-4.077-1.251c-10.73-1.824-20.815,4.006-31.403,6.044v1.359c6.797,2.039,8.049,10.193,11.804,14.306h3.934  c1.359,0,3.576,1.324,4.794,1.324c-0.242-1.41-0.7-2.773-1.359-4.042c0.836-1.126,2.427-1.361,3.552-0.524  c0.199,0.148,0.377,0.325,0.524,0.524c3.398,2.039,8.155-1.358,11.553,4.042c-3.973-0.385-7.973,0.346-11.553,2.111  c0,0.678,2.075,1.894,1.359,3.289c-3.398-1.395-7.511,0-8.87-2.611l-0.68,0.501c4.403,4.959,10.044,8.662,16.346,10.729  c8.834,1.359,16.345-2.717,25.035-0.68c30.722,14.986,52.503,50.072,52.503,85.051c0,50.07-28.612,69.741-46.494,69.741  c-3.889-0.216-7.624-1.585-10.73-3.933c2.408-8.914,3.505-18.13,3.255-27.36c0-28.899-11.409-60.229-27.073-76.181  c-7.511-7.475-15.558-13.626-23.928-13.626c-4.076,0-8.19,0-10.729,3.398c-3.367,2.85-5.141,7.158-4.757,11.552  c-6.27,4.061-13.596,6.187-21.065,6.115c-9.295-0.22-18.242-3.572-25.393-9.513v-10.443c-1.968-0.68-8.763-4.758-5.366-7.869  c1.502,0.56,2.885,1.397,4.078,2.468c-0.68-4.435-0.68-9.871-4.078-13.984c-1.91,0.133-3.813-0.342-5.436-1.359  c-2.304-2.005-3.738-4.826-4.005-7.868c2.073,3.576,5.472,2.038,7.509,4.077c-3.36-8.155-2.037-11.552-8.153-23.498  c-1.359-6.08-7.475-9.514-11.553-13.59c-2.039-1.359-2.717-3.578-5.221-3.578c-2.683-0.68-2.683-4.077-2.683-6.044  c1.417,0.498,2.774,1.158,4.04,1.967c-4.04-9.263-6.759-19.385-15.594-24.857l-2.073,1.359H778.99  c1.954-1.28,3.997-2.416,6.115-3.398c-1.87-2.091-4.66-3.11-7.438-2.718c-2.141,1.325-4.503,2.246-6.975,2.718h-0.643  c0-2.039-0.716-4.756,3.253-6.116c-4.023-0.694-8.136-0.694-12.159,0c-0.68,3.397-2.719,5.436-2.719,8.155  c-2.039,1.359-2.753,3.397-4.792,5.472c0.575-4.159,1.495-8.262,2.753-12.267c-2.753,0.68-6.151,2.718-7.511,2.718  c-4.706-2.627-9.801-4.487-15.092-5.508c4.076,2.683,2.073,7.475,2.718,10.73l-2.718-1.359c-0.644-2.717-4.078-4.756-4.722-8.155  c-3.672,0.085-7.234,1.269-10.229,3.398v0.68c2.52,0.44,4.739,1.919,6.116,4.077c-4.758,0-8.19-2.039-12.947-2.039  c0,0,0-0.678-0.607-0.678c-1.886,1.088-3.518,2.563-4.794,4.327c-4.665,3.409-8.212,8.127-10.192,13.555  c1.358,0,3.576,0,4.077,0.679c-2.719,0.68-4.077,4.077-6.831,4.757v9.907c-2.718,2.136-4.827,4.947-6.116,8.154  c-3.191,11.849-4.565,24.112-4.078,36.374c-0.319,1.869-1.615,3.425-3.396,4.077v10.551c1.932-1.817,3.975-3.514,6.115-5.079v8.513  c-2.717,0-4.756,3.397-4.756,5.436c0,2.717,0.68,5.436,0.68,8.155c-0.093,0.957,0.147,1.917,0.68,2.717  c0-1.358,1.357-2.717,3.576-3.397c1.142-0.947,2.597-1.431,4.076-1.359c-1.867,2.272-3.353,4.833-4.399,7.583l-2.037,2.039  c-0.333,0.638-0.563,1.327-0.68,2.038c2.761,13.492,6.871,26.671,12.268,39.342c-5.473,8.763-11.588,25.786-15.666,42.131  c-3.389-2.923-7.804-4.378-12.268-4.041c-4.289,0.401-8.198,2.63-10.729,6.116c-3.942-2.051-8.733-1.513-12.124,1.359  c-5.65,4.864-5.65,7.545-5.65,11.516c-2.547,2.524-4.02,5.931-4.114,9.514c-0.359,5.529,1.083,11.026,4.114,15.665h102.146  c-0.784-2.251-1.999-4.329-3.577-6.117c-2.002-4.077-0.68-9.548-0.68-13.626c1.87-4.035,4.146-7.871,6.795-11.444  c0.68-2.075,0-2.075,0.68-2.719l4.758-0.787c2.717,0,4.756-2.002,8.154-2.002c2.038,2.825,2.038-2.075,5.472-3.578  c7.439-1.358,14.307,0,18.455,5.438c0,0.786,0.68,0.786,0.68,1.465h-3.576c-3.792-1.465-8.263-3.576-13.055-1.465  c0,1.465-0.644,1.465-0.644,3.576v3.576c2.683,0,4.756,2.54,7.403,3.935c1.851-2.352,4.629-3.787,7.618-3.935  c4.13-0.38,7.787,2.662,8.165,6.792c0.012,0.12,0.021,0.24,0.025,0.361v7.475c2.793,2.249,6.037,3.871,9.513,4.756  c-0.971,2.051-3.207,3.185-5.436,2.755h-5.437c-0.68-0.68-2.039-0.68-2.039-2.755c-1.832,2.586-3.436,5.326-4.792,8.19h78.683  c-1.323-2.719-2.682-4.722-3.396-6.115c-1.123-4.451-1.581-9.043-1.359-13.626l7.511-10.086c4.041,0,7.475-1.359,14.949-2.003  c1.396-2.075,0-2.861,6.116-2.861c3.236-0.137,6.469,0.361,9.514,1.466c0.68,1.395,0.68,1.395,0,2.718  c-1.323,1.359-4.042-1.323-6.115-0.68c-1.359,1.359,0.678,2.003,0.678,3.577c1.359,1.18-6.115-1.431-6.115-1.431  s-1.358,3.97-2.038,5.366l4.077,4.041c1.359,2.039-2.039,4.078-2.039,6.117c-1.358-0.68-4.112-2.719-4.112-2.039  c-1.359,5.472,0,10.228-0.68,15.665h7.475l0.68-11.553c0.716-6.831,8.87-18.919,13.627-18.919c2.474,0.147,4.828,1.116,6.688,2.753  c1.252,2.539,4.399,3.935,4.399,5.258c0,1.324-1.896,2.074-5.043,2.074c-1.288,0-1.288-2.074-3.325-3.397l-4.078,4.041  c0,0,4.758,4.078,4.758,6.831c0.265,2.576-0.75,5.116-2.719,6.795l-4.078-8.153c-2.038,0-5.437,4.077-5.437,6.116  c0,2.753-1.359,4.077-1.359,8.19h41.667c4.946-0.018,9.785-1.444,13.949-4.114h8.118c15.821,0.648,31.156-5.541,42.096-16.989  c16.488-15.522,26.001-41.38,26.001-66.201H1018.689z M872.409,362.626l-6.795,0.68c1.849,1.167,2.907,3.255,2.753,5.436  c-0.199,2.105-1.183,4.058-2.753,5.472c-1.359-1.358-1.359-3.576-2.719-5.472c-1.359,0-2.039,3.576-2.039,4.758  c0.354,5.294,1.987,10.423,4.758,14.95h6.151c-1.071-5.382-1.765-10.833-2.075-16.31c0.477-3.3,1.454-6.508,2.897-9.514H872.409z   M783.425,370.817c0-2.719-2.003-3.398-4.756-3.398c-1.323,0-4.399,2.039-4.399,3.398c0,2.717-1.252,17.703-1.252,17.703h4.363  c2.109-6.152,6.188-14.306,6.188-17.703H783.425z M769.119,370.137c-0.716,0,0.716,1.359-6.115-5.4c-1.396,0-3.578,4.041-3.578,5.4  c0.176,6.283,1.383,12.494,3.578,18.383h5.399c0.072-6.152,0.787-12.947,0.787-18.526L769.119,370.137z M946.801,199.465  c-1.127-2.407-3.496-3.99-6.152-4.113c-2.039-2.718-4.756-6.115-7.475-6.115c2.039,0,4.792-2.039,8.154-2.039  c1.359,3.576,4.113,5.436,4.793,8.154L946.801,199.465z M926.379,185.158h-7.476c-1.323-2.038-3.576,0-4.756,0  c-1.181,0-2.075,0-4.687-2.038c4.007,0,6.046-2.039,9.442-3.578c2.826,2.146,5.508,2.826,7.547,5.545L926.379,185.158z   M910.14,262.698c-4.435-1.359-6.938-3.398-11.015-3.398c-2.963,0.419-5.771,1.589-8.155,3.398  c-2.039-2.719,1.359-8.155,4.078-9.514c1.659-1.051,3.777-1.051,5.437,0c0,4.078,4.577,2.039,7.152,3.576  C908.845,258.562,909.695,260.577,910.14,262.698z M909.533,272.57c-3.827,0-4.436-0.537-7.152-0.537  c-3.754-0.198-7.345,1.544-9.514,4.613c-1.044-1.778-1.044-3.981,0-5.759c2.119-2.44,4.985-4.112,8.154-4.756  c4.034-0.32,7.68,2.405,8.512,6.367V272.57z M925.127,287.555c-5.555-3.27-11.807-5.17-18.241-5.543  c-4.854,0.927-9.41,3.025-13.268,6.116l-1.396-6.116c4.113-0.679,4.113-4.114,6.796-4.114c2.039,0,4.686-0.68,6.58-0.68  c1.896,0,3.183-1.288,3.827-1.288c3.326,0,1.967,3.363,4.006,3.363s3.576-1.396,4.792-1.396c3.506,0.036,6.188,5.508,6.867,9.586  L925.127,287.555z M927.166,302.505c-4.758,0-9.514-1.359-10.229-3.398c-1.359-1.359,0-4.112-3.576-4.112  c-1.359,0-3.398,2.038-3.398,2.038c-1.252,0.68-5.042-2.038-5.042,0c0,3.398-2.575,4.758-5.974,4.758  c-1.394,0.101-2.791-0.133-4.076-0.68v-6.795c8.763,0,8.154-2.754,11.944-2.754c2.539,0,4.507,1.359,6.546,1.359  c3.576,0,1.396-1.359,4.792-1.359c3.398,0,4.722,2.754,6.795,3.398c0.144,2.038,2.183,4.792,2.183,7.511L927.166,302.505z   M921.192,317.061c-2.038-0.68-6.796-1.359-6.796-3.397c0-2.719-1.357-3.578-4.685-3.578c-2.887,0.191-5.719,0.881-8.369,2.039  c-1.194-1.626-2.113-3.438-2.718-5.364c2.94-1.097,6.024-1.759,9.156-1.967c4.542,0,9.334,0,9.334,1.967  C916.936,309.586,921.192,310.265,921.192,317.061z M803.167,211.267c0,0.68-1.359,6.797-1.359,6.797l-5.436,1.358l3.398-14.699  C801.231,206.717,802.379,208.924,803.167,211.267z M933.782,340.881c0.392,3.093-0.331,6.225-2.039,8.834l-4.077-6.116  c1.396-2.039,1.396-4.757,3.576-8.155c0.68,0,2.719,4.757,2.719,5.472L933.782,340.881z M917.616,332.047  c-4.792,0-2.073-9.514-11.946-9.514c-1.896,0-3.183,3.578-5.9,4.078c0-0.644,0.68-4.758,0.68-4.758  c0.026-2.284,1.304-4.371,3.325-5.436c5.043,0,3.791,2.039,7.654,3.398c1.892,1.088,3.985,1.782,6.151,2.038L917.616,332.047z   M875.305,293.599c-6.115-3.398-9.514-9.514-14.95-15.701c5.437,0,6.796,5.508,10.73,6.188c1.521,1.162,2.881,2.521,4.041,4.042  L875.305,293.599z M817.366,243.529c-4.077,0-6.116-2.039-8.155-5.831c-0.338-2.696-0.338-5.422,0-8.119  c1.359,2.719,1.359,4.112,2.719,5.436c2.719-1.359,2.719,1.967,3.398,2.683c1.074,1.817,1.803,3.818,2.146,5.902L817.366,243.529z   M929.205,358.62c-0.927,1.175-1.631,2.507-2.075,3.935c0-3.291-4.114-5.292-6.831-10.73l2.717-4.792  c2.644,1.303,4.438,3.865,4.758,6.795c-0.397,0.912-0.397,1.949,0,2.862c0.036,0.644,1.432,0.644,1.432,2.002V358.62z   M915.541,339.486c-0.183,2.311-0.639,4.592-1.357,6.795c-4.687-0.644-4.687-6.151-5.33-6.795c-3.184-4.077-7.725-0.68-11.087-0.68  c-1.359-4.077,0.68-4.077,0.68-6.831c2.074,0,4.076-1.359,6.008,0c3.147-1.359,5.043,2.039,8.37,2.039  c0.779,1.902,1.7,3.743,2.753,5.508L915.541,339.486z M881.422,311.589c0,2.754-1.359,4.756-0.68,7.511  c-1.358-4.113-4.113-8.155-5.473-12.195c0-0.68-0.68-0.68,0.716-1.359c0.68,0,3.398,0,3.398,0.68c1.098,1.613,1.796,3.463,2.038,5.4  V311.589z M822.123,258.549c-0.68,2.754-3.577,0-4.042,0h-6.151c-0.68-1.358-1.359-2.038-1.359-3.576  c2.719-0.68,4.757-2.038,6.831-0.68C818.724,256.547,820.084,258.549,822.123,258.549z M837.109,273.857  c-3.532,2.516-8.341,2.233-11.553-0.68l5.399-2.36C832.866,272.094,834.934,273.115,837.109,273.857L837.109,273.857z   M871.908,312.304c0,4.077-0.68,8.87-0.68,13.626c-2.038,0-2.038-1.359-2.038-4.112c-0.868-3.944-2.064-7.809-3.576-11.553  c-1.359-5.292-4.758-9.871-7.439-15.951c-0.716-2.754-4.114-4.078-6.831-6.151c3.43-0.485,6.902,0.518,9.549,2.753  c0,1.359,0.68,2.039,2.754,4.078c4.756,0,3.361,6.151,7.475,8.869c-2.039,1.753-2.719,3.112-4.077,4.399  C869.19,309.586,871.121,310.265,871.908,312.304z M845.334,292.24c0,2.075-1.286,2.718-2.574,4.078  c-1.114-1.423-1.962-3.034-2.503-4.757c-0.136-2.061,0.082-4.128,0.643-6.116C842.76,287.484,845.334,290.201,845.334,292.24z   M908.853,353.792c0,0.251-1.288,1.467-1.288,1.467c-2.812-1.501-5.968-2.242-9.155-2.146c0-2.717-2.039-6.116-3.396-6.116  c-4.078,0-3.578,2.719-6.796,2.719l6.116-6.116c0.68-1.359,0.68-1.359,2.037-1.359c2.039,1.359,2.719,2.074,4.758,2.074  c0.059,1.378-0.16,2.752-0.644,4.042c2.037,1.359,3.325-0.68,4.577,1.359C906.885,350.43,908.853,351.11,908.853,353.792  L908.853,353.792z M854.204,306.94c0,1.286-2.039,2.646-2.719,2.646c-1.844-1.791-3.229-3.998-4.04-6.437  c-0.039-2.642,0.654-5.241,2.003-7.511c0.68,0,1.359,1.358,2.037,1.358c0.68,0.68,0,2.718,0.68,4.757  C854.204,303.149,855.563,305.616,854.204,306.94z M801.951,241.561c-8.241-4.784-17.438-7.691-26.932-8.513  c0.227,1.553,0.068,3.138-0.465,4.614c7.977,3.336,15.423,7.817,22.104,13.305v6.151c-6.832-6.795-14.306-13.626-22.747-15.629  c-0.608,1.359-3.219,2.719-3.898,5.436c-4.563-3.701-9.947-6.252-15.7-7.439c-2.039,0-3.577-7.152-3.577-7.152  c3.183-1.132,5.681-3.644,6.795-6.831h2.719c2.039,0,2.039-1.359,2.039-3.398c0-4.112-8.87-4.112-12.911-4.112  c-3.772-0.521-7.613,0.195-10.945,2.038c-1.323,0-0.644,2.039-0.644,3.578c0,0.644,2.039,2.038,2.039,2.038  c1.396,0,2.755-1.358,4.112-1.358c-0.68,4.112,0.68,6.151,4.758,8.189l-0.68,6.618c-8.19,0-13.626,3.255-19.706,5.972  c-1.936-1.475-3.553-3.324-4.758-5.436c-8.19,2.683-21.925,13.591-21.925,13.591v-4.828c6.01-5.436,13.734-8.19,19.85-11.302v-4.72  c-2.717-1.359-5.436,0-8.152,0c-5.747,0.786-11.186,3.068-15.773,6.616c-0.073-1.533-0.302-3.054-0.68-4.542  c7.511-4.077,16.453-7.475,25.285-6.116v-2.718c-0.68-1.358-0.68-3.397-2.002-3.397c-4.077-4.113-8.189-10.229-8.189-14.306  l2.753-1.288c-1.358-3.863-2.753-14.021,0-17.418c-3.715-1.799-6.831-4.63-8.977-8.154c-1.544-2.94-2.745-6.048-3.576-9.263  c2.073-4.077,3.576-5.436,5.328-9.478c1.466-0.012,2.819-0.785,3.576-2.039c3.362-0.678,5.401-4.077,9.479-2.002  c2.595,0.258,5.132,0.935,7.511,2.002c-0.167,1.292,0.348,2.578,1.359,3.398c4.076,0,4.076,4.042,6.151,7.439  c1.763,0.521,3.599,0.751,5.437,0.68c4.077,1.251,7.475,1.251,8.834,3.111c5.16-2.895,11.137-3.989,16.988-3.111  c1.101-2.641,2.021-5.354,2.754-8.119c0.644,1.967,0.644,0,2.003,0c2.504-2.039,5.615-5.4,10.336-4.077  c2.718,2.038,7.475,0.678,10.193,4.077c2.039,2.683,3.576,6.759,5.436,9.942c-2.039,4.006,0,9.442-4.076,11.481l-4.078,4.077  c-1.359,0-1.359,1.359-3.397,1.359c1.596,5.319,1.11,11.047-1.359,16.022c1.359-0.572,3.397-0.572,3.397-2.503  c0.716,0.679,0,1.931,0,2.503v1.967c-0.304,3.665-2.007,7.071-4.757,9.514c-1.323,4.113-4.756,9.549-9.155,10.229v1.359  c9.647,0.212,19.099,2.765,27.54,7.439L801.951,241.561z M829.635,284.157l-3.578,1.323c-5.21,0.373-10.355-1.338-14.306-4.756  c2.718,0,6.151-3.577,6.151-3.577C821.105,280.504,825.16,282.926,829.635,284.157z M810.57,268.85  c-3.827,0-8.583,2.038-10.729-2.075c1.395-0.68,2.754-2.717,4.113-4.077L810.57,268.85z M865.757,332.047  c0,3.576-4.042,7.475-5.437,10.193c1.395-3.398,1.395-10.193,0-10.193c-1.359-0.68-4.077,0-4.077-1.359  c0-2.038,0.68-4.721,0.68-6.116c0-2.753-2.039-4.077-2.039-5.436c0-4.114,4.792-4.756,6.151-7.511  c0.592,2.905,0.82,5.873,0.68,8.834c0,1.359,2.039,5.472,0,8.834C861.715,331.367,865.757,330.008,865.757,332.047z   M850.128,324.572c0,4.042-2.683,7.475-3.362,11.589c0.338-3.717-0.879-7.407-3.363-10.194c0-1.359,1.932-1.359,0.645-3.576  c0,0-3.756-2.039-3.756-4.757c0-2.717,2.504-4.756,3.756-6.795c0-0.68,2.719,1.359,2.719,5.437c0.056,1.394-0.189,2.784-0.716,4.077  C845.334,322.532,850.128,322.532,850.128,324.572z M794.476,276.574c-3.397,0.68-6.116-2.717-9.514-4.077  c-0.703-3.343-1.609-6.64-2.718-9.871c2.718,2.039,8.834,2.039,7.475,8.155C789.719,272.498,792.437,273.857,794.476,276.574z   M813.289,295.638c-3.443,0.313-6.901-0.396-9.942-2.039c-2.849-1.295-5.404-3.158-7.511-5.472c2.346-1.293,4.881-2.21,7.511-2.719  C806.029,288.163,808.533,292.919,813.289,295.638L813.289,295.638z M699.662,191.168l-4.721,1.359l0.645-3.578  c1.114-2.19,2.483-4.244,4.076-6.115V191.168z M786.321,285.373c-2.753,0.68-7.475,2.039-8.798-1.324  c-2.812-4.958-2.812-11.028,0-15.986c1.132,3.668,2.017,7.409,2.646,11.194c0.716,2.754,4.793,4.148,6.151,6.188V285.373z   M767.151,248.392c-0.68,4.077-2.003,10.192-6.115,12.947c-0.179-2.301-1.138-4.471-2.719-6.151c-0.68,0,0,2.039-0.68,2.039  c-0.57,2.236-1.012,4.506-1.323,6.795c-2.038,1.304-4.576,1.556-6.831,0.68v-2.003c-0.561-1.755-0.791-3.598-0.68-5.436l-0.679-0.68  c-2.039,0.68-2.039,2.038-2.039,3.397c-1.079,1.383-1.781,3.022-2.039,4.758c-2.226,0.061-4.402-0.661-6.151-2.039v-6.151  c0-1.359,0-1.359-0.68-1.359l-3.576,3.576c-2.719-2.039-3.576-7.475-3.576-10.73c10.908-6.116,24.499-4.077,32.689-0.68  C764.433,247.677,765.793,247.677,767.151,248.392z M801.987,303.149h-2.039c-7.476,2.432-13.591-2.039-19.742-6.117  c3.919-1.43,8.061-2.156,12.231-2.145l2.039,4.112c2.632,1.114,5.139,2.503,7.475,4.149H801.987z M701.021,200.646l-3.576,4.113  c0.68,6.508-2.039,11.266-2.039,17.417l-3.576-10.73c0.685-3.036,1.896-5.928,3.576-8.547L701.021,200.646z M770.55,288.163  c-3.577-2.039-9.55-2.719-8.154-6.831c1.008-2.237,2.665-4.119,4.756-5.402C767.535,280.18,768.686,284.324,770.55,288.163z   M832.995,357.333h-0.68c-1.359-2.075-2.039-3.577-3.576-3.577c2.039-7.475-2.039-13.591-3.362-19.707v-2.039  c2.039,3.576,7.475,6.832,6.795,10.194C832.734,347.227,833.009,352.279,832.995,357.333L832.995,357.333z M817.473,332.047  c-3.576,0-6.116,0-8.155-3.576c-0.68,0-1.823-2.039-2.503-0.68c-3.361,2.719-6.796-2.003-10.73-1.359  c-2.022,2.241-4.745,3.729-7.725,4.22v-0.68c0.212-2.434,1.795-4.531,4.077-5.4c4.113,1.359,7.475-7.511,11.589-2.753  c1.677,0.519,3.432,0.749,5.185,0.68C813.897,324.572,815.328,328.614,817.473,332.047z M755.564,277.254  c0,4.793-0.68,10.73-5.438,12.982l-1.357-6.795C751.376,281.79,753.676,279.697,755.564,277.254z M778.131,306.94  c-2.189,1.647-4.841,2.573-7.581,2.646c-4.095-3.726-7.7-7.956-10.729-12.588l10.729,2.038  C773.263,301.484,775.798,304.126,778.131,306.94z M818.724,345.673c-2.718-2.074-6.795-2.074-8.154-5.472  c-2.59-0.59-5.25-0.818-7.903-0.68c-2.922,0.556-5.896,0.784-8.87,0.68c-0.716,0,0-0.68-1.359-1.324  c-4.077,1.324-8.154,1.324-12.268,5.436l3.576-8.153c2.07-0.303,4.114-0.758,6.117-1.359c2.235-0.534,4.533-0.762,6.831-0.68v0.68  c7.474,0,16.059-0.68,21.459,5.436L818.724,345.673z M741.294,288.163c-4.078-4.042-7.511-7.475-7.511-11.589  c2.131-0.205,4.271,0.271,6.115,1.359C739.898,281.332,741.294,284.157,741.294,288.163z M728.345,268.814l-2.073,8.44  c-2.278-3.888-3.886-8.132-4.758-12.553L728.345,268.814z M825.52,359.263c-1.128,2.606-2.05,5.297-2.753,8.047  c-1.359-4.077-2.719-10.085-7.476-10.085c-0.456-2.368-1.954-4.403-4.077-5.543l-5.222-0.715c0.679,2.717,4.506,2.717,1.896,6.223  c2.61,2.001,4.649,2.001,6.009,5.292c1.359,2.075,0,4.793,0.68,6.116l-4.078,2.039c0-3.397,0.68-10.05-3.827-11.444  c-4.041,1.43-4.757-4.078-7.475-5.545c-1.358,0-1.358-3.397-3.397-2.001c-3.576,2.001-7.475,0-10.729,2.001l3.398-5.436  c2.753-2.039,5.436-1.359,8.189-2.039l5.437-0.644c5.4,0,9.979,2.683,15.414,4.758c2.515,1.033,4.134,3.506,4.078,6.223  C822.802,357.333,825.52,357.333,825.52,359.263z M771.872,327.863h-1.357c-2.452-0.716-4.754-1.867-6.797-3.398  c-0.396-1.324-0.612-2.695-0.643-4.077h5.4L771.872,327.863z M719.477,279.221c-4.354-1.691-8.093-4.658-10.73-8.512  c-1.134-2.575-1.764-5.343-1.859-8.155c2.143,0.144,4.036,1.447,4.936,3.398v0.68c3.576,4.184,7.01,7.224,7.689,12.696  L719.477,279.221z M752.094,303.041c-0.645,3.792-2.719,5.079-6.116,9.835c-2.039,1.395-6.151,2.039-10.193,4.077  c0.644-2.038,2.646-2.682,4.042-4.756c1.833-2.282,3.438-4.738,4.792-7.332c2.271-1.359,4.913-1.961,7.547-1.717L752.094,303.041z   M801.88,368.67l-2.039,2.039c-2.038-2.039-0.679-7.475-4.077-8.191c-3.576,0-6.115-3.291-7.475-3.935l2.754-1.358  c0.865-0.388,1.854-0.388,2.718,0c1.359,1.358,2.719,2.002,2.719,3.576c1.359,1.86,3.397,0,4.792,1.86  c0.845,1.909,1.081,4.032,0.68,6.08L801.88,368.67z M739.898,297.676c-2.039,4.078-4.042,7.905-8.154,9.229  c-3.148,0.664-6.4,0.664-9.55,0c2.039-1.359,4.078-1.968,6.831-3.792l5.401-5.437H739.898z M753.525,328.614  c-2.309,1.812-5.375,2.336-8.154,1.394l-4.077-5.436h10.229L753.525,328.614z M704.455,277.254c-3.577,3.576-6.831,4.793-8.19,8.87  c-0.053-1.885-0.504-3.738-1.323-5.436c0.553-1.91,1.739-3.575,3.362-4.722C700.342,276.574,701.701,276.574,704.455,277.254z   M712.037,287.519c-0.216,3.598-1.757,6.986-4.328,9.513c-0.813,0.735-1.673,1.417-2.574,2.039c0-4.113,1.932-7.511,1.932-10.908  c1.896-0.68,3.72-2.039,4.936-0.68L712.037,287.519z M721.551,295.674l-2.718,9.942c-3.577,2.646-8.013,1.358-11.767,1.358  c4.936-1.358,9.048-7.152,11.767-11.301c0.68-0.787,1.358-0.036,2.718-0.036V295.674z M725.128,330.043  c0,2.039-0.68,10.194-0.68,10.194c-1.359-4.756-4.758-9.514-8.87-9.514c-1.973-1.671-3.548-3.761-4.614-6.115  c-1.859-2.039-3.576,0-6.366-2.039c-3.088-0.312-6.194,0.405-8.833,2.039v-2.039l4.756-5.472c4.757,0.68,10.443,0,11.659,3.576  c2.807,1.369,5.349,3.221,7.511,5.473v2.002c1.217,0.466,3.899,1.182,5.259,1.86L725.128,330.043z M721.551,351.145l-4.757,4.186  c-1.358-1.467,0-4.828-2.038-6.903c0-1.359,1.358-2.039,0.644-2.683c-0.644-1.359-8.333-4.112-8.333-4.112  c-3.055-2.089-5.98-4.358-8.763-6.795c-2.718-0.679-4.757,0.68-8.154,1.358v-1.358c1.359-2.718,1.359-6.151,5.472-6.151  c2.039,0,4.757,0,6.115,2.038c2.755,0,4.113,2.719,6.009,3.576c2.269,2.4,4.87,4.459,7.726,6.117c-0.2,1.654,0.6,3.27,2.039,4.112  c4.041-0.215,2.682,4.006,4.041,6.582V351.145z M711.394,360.802l-1.824,6.652l-4.436-12.124  c-5.473-4.828-11.588-5.543-14.985-8.262c-2.719-0.68-2.719,1.359-4.078,0c-0.158-2.031,0.603-4.026,2.075-5.436h4.148l4.078,2.039  c2.039,2.073,6.795,2.073,6.795,6.116c0,0.68-0.716,1.358,1.359,4.077l6.365,1.467L711.394,360.802z M692.867,367.454  c0,5.438-8.833,12.911-8.833,12.911c0-3.397,2.037-7.474,2.037-11.552c-1.47-1.496-3.395-2.464-5.472-2.753  c-2.003,1.394-2.003,2.753-2.683,4.792c-2.038,4.077-6.116,8.155-6.796,12.267c-0.374,0-0.68-0.304-0.68-0.68l0,0  c0-6.795,0.68-18.383,4.758-23.033c2.509-3.039,6.253-4.786,10.192-4.756l3.578,0.68l-2.935,3.933  c2.684,1.503,6.832,4.042,6.832,8.155V367.454z M669.011,363.377c0.046,2.63-0.648,5.22-2.003,7.475  c-0.715-2.719-2.61-6.08-5.901-6.08c-2.682,5.4-3.397,7.439-0.679,15.592c-1.74,1.746-3.806,3.131-6.081,4.078  c-1.143-3.27-1.617-6.737-1.394-10.194c-0.051-4.563,0.638-9.104,2.037-13.447c2.039-2.075,3.578-5.508,5.438-6.975h7.152  c-3.255,0-3.255,2.862-3.255,4.864c2.003,0.572,4.686,1.359,4.686,4.614V363.377z M651.631,370.852c-0.68,0-2.755-2.039-4.758-2.039  c-1.932,4.078,0,6.831,0,11.552c-0.031,1.384-0.261,2.758-0.68,4.078c-1.252,0-3.576-2.719-4.292-5.436v-10.73l5.687-7.154  c3.48,1.86,5.171,5.913,4.043,9.693V370.852z M791.114,183.121c1.585-4.202,1.065-8.906-1.395-12.662  c-1.359-2.719-4.757-4.077-8.154-6.759l-4.687,2.683c-2.405,1.555-3.774,4.294-3.576,7.152c4.743,2.655,8.6,6.648,11.088,11.481  h2.039c1.931-1.967,3.29,0.072,4.649-1.967L791.114,183.121z M768.51,187.198c0-2.039-0.68-2.039-1.323-2.039  c-3.576,0-3.576-5.436-6.115-4.077c-1.324,0-2.719-1.359-4.722,0c0,0.68,0,0.68,1.323,0.68c3.398,0,2.039,4.756,4.758,5.436H768.51z   M778.846,195.352c0,0,1.359,0,0-0.68l-14.306-2.039c-1.324,2.039-4.757,2.039-4.757,4.042h-1.359  c1.156,5.706,1.611,11.53,1.359,17.346c3.149,0.281,5.541,2.955,5.472,6.115c2.813,1.083,5.511,2.451,8.047,4.078  c1.252-0.644,1.86-2.719,2.504-4.758c-2.504-3.576-8.512-1.359-8.512-7.475l-4.042-1.359c0.167-3.591-0.073-7.191-0.716-10.729  l0.716-0.5c0,0.5,0.644,1.216,2.039,2.61c2.763,0.576,5.641,0.077,8.047-1.394c1.252-0.715,1.252-4.006,2.504-4.006  s2.288,0.036,2.968-1.288L778.846,195.352z M745.371,181.046c-1.324-1.359-5.473,0.68-7.476,1.359  c-2.453,0.377-4.379,2.303-4.756,4.756h7.475c1.203-2.319,2.814-4.403,4.757-6.151V181.046z M730.385,173.643  c-0.68-6.616-8.154-7.154-11.552-9.943h-2.719c-5.292,1.967-6.544,7.439-7.152,11.91c1.86,6.116,5.829,2.038,8.512,6.116  c4.026-3.125,8.352-5.844,12.911-8.119V173.643z M770.55,235.767v-3.363h-6.725l-0.644,0.68L770.55,235.767z M739.898,196.676  c0-1.324-1.395-2.683-3.397-4.042h-16.31c-0.081,2.152,1.597,3.962,3.749,4.043c0.11,0.004,0.219,0.004,0.329-0.001  c0,2.789,2.039,3.291,2.717,4.005c2.075,1.395,2.719,1.395,4.758,0c2.039,1.395,2.719-1.216,3.576,0  c0.141,3.106-0.1,6.217-0.715,9.265c-0.68,4.792-4.757,4.077-8.191,6.151c0,2.038-2.037,5.436,0,7.475  c2.127-1.462,4.42-2.663,6.832-3.578c0-2.038,2.038-4.077,4.757-5.436c-0.107-6.008,1.896-11.838,1.896-17.918V196.676z   M734.463,232.44c-1.323-2.717-4.758,0-8.19-1.358c-0.219,1.656,0.605,3.277,2.073,4.077c1.699-1.544,3.837-2.52,6.117-2.789V232.44  z"/>
</svg>
