<svg width="420" height="100" xmlns="http://www.w3.org/2000/svg"><g fill="none" fill-rule="evenodd"><path d="M55.4 94.411c.48 0 .938-.089 1.373-.265a3.822 3.822 0 0 0 1.147-.716c.328-.302.595-.658.788-1.067a3.01 3.01 0 0 0 .291-1.305c0-.461-.097-.895-.29-1.303a3.49 3.49 0 0 0-.789-1.074 3.797 3.797 0 0 0-1.147-.722 3.648 3.648 0 0 0-1.373-.262h-2.422v6.714H55.4zM50 97.245V84.861h5.4a6.852 6.852 0 0 1 3.316.849c.487.27.93.593 1.336.97a6.092 6.092 0 0 1 1.698 2.731c.157.529.236 1.075.236 1.647 0 .57-.079 1.118-.236 1.646a6.069 6.069 0 0 1-1.698 2.73c-.406.377-.849.7-1.336.969a6.795 6.795 0 0 1-1.571.62 6.852 6.852 0 0 1-1.745.222H50zm23.011 0h2.988V84.861h-2.988zm25.768-6.948v5.382c-.345.343-.718.62-1.115.836-.4.217-.812.383-1.244.509a7.6 7.6 0 0 1-1.325.26c-.452.05-.91.074-1.37.074a7.081 7.081 0 0 1-1.777-.223 6.866 6.866 0 0 1-2.957-1.621 6.206 6.206 0 0 1-1.72-2.784 5.815 5.815 0 0 1-.243-1.684c0-.579.08-1.14.243-1.677a6.245 6.245 0 0 1 1.72-2.784c.41-.382.863-.71 1.358-.985a7.015 7.015 0 0 1 3.376-.86c.485 0 .967.058 1.448.173a7.2 7.2 0 0 1 1.397.49 7.69 7.69 0 0 1 1.314.773 9.19 9.19 0 0 1 1.187 1.027l-.756.743c-.377.376-.852.563-1.432.563a1.98 1.98 0 0 1-1.102-.322 4.39 4.39 0 0 0-.97-.452 3.48 3.48 0 0 0-1.087-.168c-.504 0-.98.091-1.43.275a3.835 3.835 0 0 0-1.178.748 3.54 3.54 0 0 0-.807 1.106c-.201.425-.3.875-.3 1.35 0 .503.103.97.314 1.396.208.426.49.793.836 1.1.349.308.753.55 1.21.726.46.178.942.265 1.445.265.348 0 .693-.033 1.039-.097.344-.063.659-.16.94-.285v-1.192a2.501 2.501 0 0 1-.802-.138 1.969 1.969 0 0 1-.624-.35 1.63 1.63 0 0 1-.407-.52 1.492 1.492 0 0 1-.146-.659v-.995h4.965zm11.461 6.948h2.988V84.861h-2.988zm13.58-9.748v-2.645h10.24v2.645h-3.625v9.748h-2.979v-9.748zm22.84 4.71h2.786l-1.137-2.592a2.296 2.296 0 0 1-.13-.336 3.723 3.723 0 0 1-.073-.278 1.322 1.322 0 0 1-.045-.257 3.704 3.704 0 0 1-.055.266 3.703 3.703 0 0 1-.2.605l-1.146 2.592zm.116-7.346h2.57l5.703 12.384h-1.926a2.27 2.27 0 0 1-.576-.074 1.937 1.937 0 0 1-.942-.561 1.772 1.772 0 0 1-.31-.46l-.64-1.376h-5.191l-.618 1.375a1.598 1.598 0 0 1-.307.432 2.38 2.38 0 0 1-.44.348c-.165.102-.341.18-.53.234a1.97 1.97 0 0 1-.564.082h-1.93l5.7-12.384zm17.826 12.384V84.861h2.98v9.74h5.155v2.644zm36.202-9.672c-.158 0-.312.016-.461.04a1.4 1.4 0 0 0-.397.128.808.808 0 0 0-.276.213.48.48 0 0 0-.106.311c0 .185.051.33.144.433.098.103.248.194.443.272.198.079.446.155.739.234.293.079.64.182 1.035.307.5.161.963.358 1.38.591.414.234.768.51 1.066.821a3.369 3.369 0 0 1 .932 2.371c0 .602-.133 1.151-.399 1.648-.27.5-.625.927-1.07 1.285a5.124 5.124 0 0 1-1.545.833 5.628 5.628 0 0 1-1.815.298 5.21 5.21 0 0 1-1.524-.224 5.186 5.186 0 0 1-1.331-.628 4.72 4.72 0 0 1-1.061-.959 4.45 4.45 0 0 1-.71-1.214l.947-.518c.153-.083.314-.144.486-.195.175-.048.347-.073.526-.073.26 0 .495.051.706.154.207.104.413.216.615.338.199.122.406.234.618.336.214.105.457.158.728.158.184 0 .382-.027.596-.083a2.47 2.47 0 0 0 .604-.238c.185-.103.337-.23.457-.385a.818.818 0 0 0 .185-.533.652.652 0 0 0-.17-.466 1.452 1.452 0 0 0-.454-.316 5.012 5.012 0 0 0-.66-.243 13.5 13.5 0 0 1-.784-.269 22.18 22.18 0 0 1-1.331-.528 5.018 5.018 0 0 1-1.175-.706 3.282 3.282 0 0 1-.843-1.017c-.215-.401-.323-.897-.323-1.49 0-.56.12-1.058.36-1.491.24-.436.558-.803.951-1.102.396-.3.846-.529 1.354-.687a5.213 5.213 0 0 1 1.563-.24c.386 0 .768.063 1.133.188a5.21 5.21 0 0 1 1.043.485c.327.197.635.422.92.678.285.253.544.512.775.776l-.921.735a1.76 1.76 0 0 1-.57.32 2.13 2.13 0 0 1-.66.096 1.67 1.67 0 0 1-.507-.07 4.31 4.31 0 0 1-.41-.151 8.147 8.147 0 0 0-.385-.15 1.174 1.174 0 0 0-.418-.073m17.279 3.474c0 .48.103.931.3 1.356.2.422.47.793.813 1.11a3.815 3.815 0 0 0 2.614 1.02c.499 0 .97-.093 1.423-.274.452-.182.85-.43 1.191-.746.34-.317.609-.688.81-1.11.201-.425.302-.877.302-1.356 0-.476-.1-.926-.302-1.351a3.59 3.59 0 0 0-.81-1.105 3.945 3.945 0 0 0-1.191-.75 3.726 3.726 0 0 0-1.423-.275c-.505 0-.982.092-1.433.276a3.904 3.904 0 0 0-1.181.749 3.54 3.54 0 0 0-.813 1.105c-.197.425-.3.875-.3 1.35m-2.977 0c0-.579.08-1.14.239-1.677a6.07 6.07 0 0 1 .681-1.508c.289-.468.64-.892 1.045-1.277a6.88 6.88 0 0 1 1.358-.984 7.048 7.048 0 0 1 6.76 0c.497.275.95.603 1.356.984a6.19 6.19 0 0 1 1.727 2.785c.162.537.241 1.098.241 1.678 0 .585-.08 1.143-.241 1.683a6.204 6.204 0 0 1-1.727 2.783 6.596 6.596 0 0 1-1.356.984 7.079 7.079 0 0 1-1.605.637 7.064 7.064 0 0 1-1.774.224 7.09 7.09 0 0 1-1.783-.224 7.155 7.155 0 0 1-1.598-.637 6.766 6.766 0 0 1-1.358-.984 6.278 6.278 0 0 1-1.045-1.276 5.917 5.917 0 0 1-.92-3.19m24.12 6.198V84.861h2.977v9.74h5.157v2.644zm21.196-4.987c0 .312.069.606.2.883.134.275.314.518.539.726.224.206.483.37.78.491.293.122.606.182.932.182.33 0 .64-.06.934-.182.294-.121.555-.285.783-.491.227-.208.41-.45.54-.726a1.96 1.96 0 0 0 .203-.883V84.86h2.98v7.397c0 .71-.144 1.375-.43 1.994a5.164 5.164 0 0 1-1.164 1.62 5.559 5.559 0 0 1-1.729 1.091 5.517 5.517 0 0 1-2.117.402c-.498 0-.978-.058-1.438-.181a5.45 5.45 0 0 1-1.294-.515c-.4-.22-.767-.488-1.104-.797a5.095 5.095 0 0 1-.855-1.034 4.83 4.83 0 0 1-.549-1.218 4.63 4.63 0 0 1-.2-1.362V84.86h2.99v7.397zm17.901-4.761v-2.645h10.24v2.645h-3.626v9.748h-2.979v-9.748zm20.872 9.748h2.986V84.861h-2.986zm16.997-6.198c0 .48.1.931.3 1.356.198.422.47.793.81 1.11.34.316.734.564 1.184.746.448.181.927.274 1.43.274.498 0 .973-.093 1.426-.274a3.66 3.66 0 0 0 2-1.857c.2-.424.3-.876.3-1.355 0-.476-.1-.926-.301-1.351a3.554 3.554 0 0 0-.81-1.105 3.929 3.929 0 0 0-1.19-.75 3.745 3.745 0 0 0-1.424-.275c-.504 0-.983.092-1.43.276a3.886 3.886 0 0 0-1.184.749 3.5 3.5 0 0 0-.81 1.105 3.12 3.12 0 0 0-.301 1.35m-2.978 0c0-.579.079-1.14.24-1.677.16-.54.386-1.044.677-1.508a6.526 6.526 0 0 1 2.404-2.26 7.029 7.029 0 0 1 3.382-.861 6.994 6.994 0 0 1 3.38.86c.495.275.95.603 1.356.984.407.385.758.809 1.048 1.277.292.464.515.969.68 1.508.16.537.242 1.098.242 1.678 0 .585-.082 1.143-.243 1.683a6.242 6.242 0 0 1-1.727 2.783 6.6 6.6 0 0 1-1.357.984 7.091 7.091 0 0 1-1.604.637 7.093 7.093 0 0 1-1.775.224 7.082 7.082 0 0 1-1.781-.224 7.131 7.131 0 0 1-1.6-.637 6.636 6.636 0 0 1-1.357-.984 6.416 6.416 0 0 1-1.048-1.276 6.128 6.128 0 0 1-.678-1.507 5.867 5.867 0 0 1-.24-1.683m36.308 6.198h-2.962l-6.239-8.564v8.564h-2.97V84.861h2.932c.292 0 .551.043.777.122.223.082.4.204.517.37l4.565 6.346c.068.09.126.193.17.301.05.11.094.212.13.306.037.097.064.177.082.246.02.071.029.114.029.131v-7.822h2.969v12.384zm15.405-9.672c-.16 0-.312.016-.463.04a1.363 1.363 0 0 0-.393.128.783.783 0 0 0-.28.213.49.49 0 0 0-.104.311c0 .185.048.33.145.433.098.103.243.194.442.272.198.079.444.155.738.234.295.079.64.182 1.035.307.504.161.964.358 1.38.591.417.234.771.51 1.065.821.295.315.523.666.687 1.059.164.393.247.832.247 1.312 0 .602-.134 1.151-.403 1.648a4.084 4.084 0 0 1-1.068 1.285c-.447.356-.96.633-1.544.833a5.623 5.623 0 0 1-1.814.298 5.218 5.218 0 0 1-1.527-.224 5.21 5.21 0 0 1-1.329-.628 4.69 4.69 0 0 1-1.06-.959 4.43 4.43 0 0 1-.71-1.214l.95-.518a2.32 2.32 0 0 1 .485-.195c.171-.048.348-.073.523-.073.26 0 .498.051.704.154.21.104.415.216.616.338.2.122.406.234.619.336.212.105.456.158.73.158.182 0 .38-.027.596-.083.217-.055.417-.135.602-.238a1.57 1.57 0 0 0 .46-.385.82.82 0 0 0 .182-.533.66.66 0 0 0-.168-.466 1.495 1.495 0 0 0-.455-.316 4.91 4.91 0 0 0-.662-.243c-.248-.077-.51-.166-.784-.269a21.99 21.99 0 0 1-1.33-.528 4.988 4.988 0 0 1-1.175-.706 3.292 3.292 0 0 1-.843-1.017c-.215-.401-.322-.897-.322-1.49 0-.56.118-1.058.36-1.491.24-.436.557-.803.951-1.102.396-.3.846-.529 1.353-.687a5.235 5.235 0 0 1 1.564-.24c.389 0 .766.063 1.132.188a5.16 5.16 0 0 1 1.043.485c.33.197.636.422.922.678.284.253.544.512.774.776l-.92.735a1.77 1.77 0 0 1-.57.32 2.153 2.153 0 0 1-.662.096c-.193 0-.364-.024-.51-.07a4.427 4.427 0 0 1-.408-.151 7.502 7.502 0 0 0-.382-.15 1.185 1.185 0 0 0-.419-.073" fill="#575756"/><path d="M130.08 22.045l10.124 23.417H119.96l10.12-23.417zm4.895-15.95h-9.79L97.477 70.132h6.674c1.56 0 3.004-.426 4.294-1.267a7.537 7.537 0 0 0 2.853-3.41l3.917-9.09h29.695l3.957 9.096c.633 1.446 1.6 2.599 2.875 3.426 1.27.827 2.706 1.245 4.268 1.245h6.677L134.975 6.095zm38.095 64.037h10.82V6.095h-10.82zM206.891 17h12.305a7.89 7.89 0 0 1 3.197.653 8.511 8.511 0 0 1 2.624 1.794 8.57 8.57 0 0 1 1.78 2.645c.428.99.646 2.074.646 3.222a8.048 8.048 0 0 1-.646 3.222 8.58 8.58 0 0 1-1.78 2.646 8.101 8.101 0 0 1-5.82 2.404H206.89V17zm19.662 26.01a18.731 18.731 0 0 0 3.77-2.122 19.405 19.405 0 0 0 4.204-4.146 18.974 18.974 0 0 0 2.758-5.301c.65-1.937.98-3.999.98-6.127 0-2.645-.507-5.171-1.506-7.508-.994-2.322-2.364-4.372-4.07-6.091-1.704-1.717-3.738-3.098-6.046-4.103-2.319-1.006-4.823-1.517-7.447-1.517h-23.124v64.037h10.82v-25.64h7.31l15.63 21.254c.933 1.448 2.137 2.554 3.576 3.288 1.43.73 3.081 1.098 4.91 1.098h8.153l-19.918-27.123zm136.391-6.5a18.976 18.976 0 0 0-2.831-1.811 43.31 43.31 0 0 0-2.921-1.384 50.473 50.473 0 0 0-3.023-1.186 77.867 77.867 0 0 1-3.023-1.146c-1.982-.675-3.69-1.318-5.078-1.911-1.332-.57-2.419-1.175-3.233-1.799-.754-.575-1.305-1.23-1.635-1.946-.337-.727-.508-1.648-.508-2.738 0-.896.217-1.703.661-2.466a6.832 6.832 0 0 1 1.875-2.06c.81-.596 1.766-1.07 2.838-1.409a11.606 11.606 0 0 1 3.494-.516c.865 0 1.82.216 2.84.646 1.067.448 2.136 1.062 3.23 1.862 1.2.762 2.578 1.149 4.093 1.149 1.791 0 3.391-.599 4.704-1.738l2.973-2.233-.628-.774c-.799-.984-1.81-2.032-3.001-3.114a27.043 27.043 0 0 0-4.07-3.031 24.808 24.808 0 0 0-4.837-2.283 16.143 16.143 0 0 0-5.304-.91c-2.389 0-4.756.376-7.036 1.12-2.289.75-4.356 1.853-6.143 3.279a16.654 16.654 0 0 0-4.37 5.314c-1.104 2.107-1.665 4.529-1.665 7.2 0 2.9.517 5.37 1.536 7.345a15.479 15.479 0 0 0 4.047 4.994c1.636 1.323 3.517 2.46 5.59 3.378 1.997.886 4.084 1.759 6.196 2.595 1.545.62 2.97 1.172 4.359 1.686a18.748 18.748 0 0 1 3.78 1.886c1.07.7 1.95 1.552 2.616 2.533.627.922.946 2.13.946 3.59 0 1.536-.35 2.897-1.037 4.044a10.017 10.017 0 0 1-2.732 2.989 12.928 12.928 0 0 1-3.76 1.864c-3.084.954-6.054.789-8.246-.047a11.414 11.414 0 0 1-3.344-1.979l-.637-.52c-1.45-1.508-3.246-2.272-5.336-2.272-1.411 0-2.183.43-3.295 1.11l-3.063 1.71.402.818c.106.216.222.417.362.655.091.157.193.332.311.546a30.29 30.29 0 0 0 1.115 1.886c.134.204.24.391.344.575.224.396.457.805.883 1.307a20.44 20.44 0 0 0 2.057 2.098c3.859 3.441 8.708 5.186 14.413 5.186 2.86 0 5.64-.49 8.268-1.456 2.63-.97 4.983-2.346 6.992-4.092a19.802 19.802 0 0 0 4.842-6.307c1.2-2.45 1.808-5.186 1.808-8.129 0-5.885-2.295-10.631-6.82-14.107m-289.31 1.193a7.627 7.627 0 0 0-.394-.47c.134-.147.27-.312.414-.498l22.393-30.64H87.9c-1.827 0-3.48.369-4.913 1.096-1.444.738-2.647 1.845-3.576 3.293l-17.1 23.378c-.33.457-.65.84-.953 1.13l-.058.056V6.096H50.478v64.036H61.3V39.484l.077.071c.3.277.621.638.941 1.056l18.5 25.136c.929 1.445 2.132 2.552 3.578 3.29 1.424.726 3.076 1.095 4.91 1.095h8.157l-23.83-32.428zM292.8 69.483c-14.53 2.839-23.83-4.773-23.83-4.773s6.884-6.619 7.732-7.893c5.995 3.555 14.012 2.101 14.012 2.101 8.688-2.071 12.218-7.385 12.218-7.385l10.088 4.321c-3.557 5.084-9.403 11.518-20.22 13.63zm-19.32-38.675c-.93-.522-2.93-1.633-5.321-2.958 2.896-5.289 7.998-9.306 14.336-10.577a20.961 20.961 0 0 1 4.116-.408v6.172s7.607-.41 12.43 6.702c.894-.594 2.809-1.88 5.093-3.419a21.256 21.256 0 0 1 3.131 7.635 21.28 21.28 0 0 1-1.205 12.28l-5.65-2.351s-1.971 5.57-8.098 8.137c0 0-8.745 4.04-16.263-3.269l-4.33 4.367a21.1 21.1 0 0 1-3.821-5.265l5.414-2.836s-3.869-6.618.167-14.21zm-7.633 11.098l-9.767 5.099c-2.928-9.71.22-18.593.22-18.593s7.467 4.725 9.636 5.403c-.898 4.628-.089 8.091-.089 8.091zm26.961-35.197c9.898 1.859 16.265 8.772 16.265 8.772s-7.601 4.499-9.2 6.125c-3.658-2.936-7.083-3.81-7.083-3.81l.018-11.087zm23.132 43.64a32.085 32.085 0 0 0 1.807-18.498 32.018 32.018 0 0 0-4.726-11.52c2.877-1.94 5.032-3.396 5.032-3.396S308.295.256 286.61 0v6.09c-2.046 0-4.12.199-6.202.616-9.563 1.917-17.256 7.98-21.62 15.962l-5.35-2.956s-10.182 16.417-.408 35.929l5.382-2.819a31.85 31.85 0 0 0 5.752 7.919l-4.272 4.31s10.39 11.443 26.718 11.145c15.93-.292 28.788-9.007 34.928-23.516l-5.6-2.33z" fill="#FF7900"/></g></svg>
