<svg xmlns="http://www.w3.org/2000/svg" viewBox="0 0 78.11 58.87"><defs><style>.cls-1{fill:#1c1c1c;}.cls-2{fill:#00c992;}</style></defs><title>Recurso 1</title><g id="Capa_2" data-name="Capa 2"><g id="Capa_1-2" data-name="Capa 1"><path class="cls-1" d="M8.4,58.77a8.93,8.93,0,0,1-4.3-.4,6.91,6.91,0,0,1-3-2A5.17,5.17,0,0,1,0,53.17V43.07a6,6,0,0,1,1.1-3.4,10,10,0,0,1,3-2.8,9.51,9.51,0,0,1,4.3-1.4,9.87,9.87,0,0,1,4.2.3,6.91,6.91,0,0,1,3,2,5.1,5.1,0,0,1,1.1,3.1v1.5c0,.1-.1.2-.2.1h0l-4.8.6c-.1,0-.2,0-.2-.1v-1.5a1.85,1.85,0,0,0-.9-1.7,3.15,3.15,0,0,0-2.3-.5,4.42,4.42,0,0,0-2.4,1.1,2.73,2.73,0,0,0-.8,1.9v10.1a2.14,2.14,0,0,0,.9,1.8,3.57,3.57,0,0,0,2.2.5,3.84,3.84,0,0,0,2.3-1.1,2.52,2.52,0,0,0,.9-2v-1.5c0-.1.1-.2.2-.1h0l4.8-.6c.1,0,.2,0,.2.1V51a6.06,6.06,0,0,1-1.1,3.5,10,10,0,0,1-3,2.8A10.17,10.17,0,0,1,8.4,58.77Z"/><path class="cls-1" d="M18.4,57l5.3-23a.22.22,0,0,1,.2-.21L30.1,33c.1,0,.2,0,.2.09l5.1,21.6c0,.1,0,.2-.2.2l-4.8.6c-.1,0-.2,0-.2-.1h0l-.5-2.3-5.7.81-.5,2.4a.22.22,0,0,1-.2.2l-4.8.6s-.1,0-.1-.1Zm6.4-6.6,4.1-.5L27.1,41l-.3-1.21L26.7,41Z"/><path class="cls-1" d="M38.2,54.57c-.1,0-.1,0-.2-.09v-.1c0-8.9.1-13.4.1-22.3,0-.1.1-.2.2-.1h0l5.2-.7a.37.37,0,0,1,.3.1l3.9,3.8,3.9-4.8c.1-.1.2-.2.3-.2l5.3-.7c.1,0,.2,0,.2.1,0,8.9.1,13.4.1,22.3a.22.22,0,0,1-.2.2h0l-4.8.6c-.1,0-.1,0-.2-.1V36l-4.5,5.5-4.5-4.4v16.5a.22.22,0,0,1-.2.2h0Z"/><path class="cls-1" d="M61.3,51.68c-.1,0-.2,0-.2-.1,0-8.9.1-13.4.1-22.3,0-.1.1-.2.2-.1h0l8.2-1.1a9,9,0,0,1,6.2,1,5.26,5.26,0,0,1,2.3,4.6,7.24,7.24,0,0,1-1.2,4.09,9.74,9.74,0,0,1-3.1,3,9.25,9.25,0,0,1-4.2,1.41l-3.3.4v8.2a.22.22,0,0,1-.2.2h0Zm5-12.91,3.3-.4a3.83,3.83,0,0,0,2.4-1.3,3.78,3.78,0,0,0,1-2.7,2.25,2.25,0,0,0-.9-2,3.12,3.12,0,0,0-2.5-.5l-3.3.4v6.5Z"/><path class="cls-2" d="M.4,32.48c-.2,0-.3-.1-.3-.21V10.17a.27.27,0,0,1,.3-.3h0l3.2-.4,6.1,12L9.5,9a.27.27,0,0,1,.3-.31h0l3.6-.5a.22.22,0,0,1,.2.2V30.48a.22.22,0,0,1-.2.2h0l-3.2.4L4,20.08l.2,11.6c.1.19-.1.3-.2.3H4Z"/><path class="cls-2" d="M23.3,29.87a6.92,6.92,0,0,1-3.5-.39,6.38,6.38,0,0,1-2.6-2,5,5,0,0,1-1-3.11V14.07a6.74,6.74,0,0,1,1-3.4A7.46,7.46,0,0,1,19.8,8a7.89,7.89,0,0,1,3.5-1.3,6.92,6.92,0,0,1,3.5.4,5.46,5.46,0,0,1,2.5,2,5,5,0,0,1,1,3.1V22.48a6.71,6.71,0,0,1-1,3.39,7.49,7.49,0,0,1-2.6,2.71A8.29,8.29,0,0,1,23.3,29.87Zm0-3.89a3,3,0,0,0,1.9-1,2.75,2.75,0,0,0,.8-1.9V12.78a2.14,2.14,0,0,0-.8-1.7,2.51,2.51,0,0,0-1.9-.5,3.52,3.52,0,0,0-1.9,1,2.73,2.73,0,0,0-.8,1.9V23.77a2.16,2.16,0,0,0,.8,1.71,2.55,2.55,0,0,0,1.9.5Z"/><path class="cls-2" d="M33.2,28.27c-.1,0-.1,0-.1-.1h0c0-8.9,0-13.4.1-22.3a.1.1,0,0,1,.1-.1h0l7.2-.9a7.44,7.44,0,0,1,3.6.4,6.3,6.3,0,0,1,2.6,2,5,5,0,0,1,1,3.1,5.38,5.38,0,0,1-.4,2.2,5.56,5.56,0,0,1-.9,1.7,5.24,5.24,0,0,1-1,1.1,5.28,5.28,0,0,1,1.9,4.31v6.6a.35.35,0,0,1-.1.2h0l-4.1.5c-.1,0-.1,0-.1-.11V20.18a2.32,2.32,0,0,0-.9-1.9,2.86,2.86,0,0,0-2.2-.6l-2.4.3v9.5a.35.35,0,0,1-.1.2h0Zm4.2-14.1,3.1-.39a3,3,0,0,0,2-1,2.84,2.84,0,0,0,.9-1.9,2.14,2.14,0,0,0-.8-1.7,2.88,2.88,0,0,0-2-.5l-3.1.4-.1,5.09Z"/><path class="cls-2" d="M53.2,25.68c-.1,0-.1,0-.1-.1h0V7.07l-4.7.6c-.1,0-.1,0-.2-.1V3.88a.1.1,0,0,1,.1-.1h0L62,2c.1,0,.2,0,.2.09v3.6a.35.35,0,0,1-.1.2h0l-4.7.6V25a.35.35,0,0,1-.1.2h0Z"/><path class="cls-2" d="M64.1,24.37c-.1,0-.1,0-.1-.1h0V1.87a.22.22,0,0,1,.2-.2h0l4-.5c.1,0,.2,0,.2.1v8.81l5.4-.7V.67a.1.1,0,0,1,.1-.1h0l4-.5C78,0,78,0,78,.08l.1,22.29a.22.22,0,0,1-.2.21h0l-4,.5c-.1,0-.1,0-.2-.1V13.37l-5.4.7v9.5a.35.35,0,0,1-.1.2h0Z"/></g></g></svg>